<svg width="155" height="133" viewBox="0 0 155 133" fill="none" xmlns="http://www.w3.org/2000/svg">
<g filter="url(#filter0_d_1_2)">
<path d="M75.623 2.1029C76.2652 0.356827 78.7348 0.356825 79.377 2.1029L95.3178 45.4393C95.6072 46.226 96.3565 46.7488 97.1948 46.7488L148.193 46.7505C150.19 46.7506 150.954 49.355 149.274 50.4336L108.46 76.6322C107.671 77.1387 107.34 78.1255 107.663 79.0056L123.348 121.658C124.01 123.458 122.005 125.067 120.391 124.032L78.5803 97.1973C77.922 96.7749 77.078 96.7749 76.4197 97.1973L34.6089 124.032C32.9951 125.067 30.9897 123.458 31.6516 121.658L47.3368 79.0056C47.6604 78.1255 47.3292 77.1387 46.5401 76.6322L5.72628 50.4336C4.04591 49.355 4.80983 46.7506 6.8066 46.7505L57.8052 46.7488C58.6435 46.7488 59.3928 46.226 59.6822 45.4393L75.623 2.1029Z" fill="#00E0FF"/>
</g>
<defs>
<filter id="filter0_d_1_2" x="0.80304" y="0.793335" width="153.394" height="131.564" filterUnits="userSpaceOnUse" color-interpolation-filters="sRGB">
<feFlood flood-opacity="0" result="BackgroundImageFix"/>
<feColorMatrix in="SourceAlpha" type="matrix" values="0 0 0 0 0 0 0 0 0 0 0 0 0 0 0 0 0 0 127 0" result="hardAlpha"/>
<feOffset dy="4"/>
<feGaussianBlur stdDeviation="2"/>
<feComposite in2="hardAlpha" operator="out"/>
<feColorMatrix type="matrix" values="0 0 0 0 0 0 0 0 0 0 0 0 0 0 0 0 0 0 0.25 0"/>
<feBlend mode="normal" in2="BackgroundImageFix" result="effect1_dropShadow_1_2"/>
<feBlend mode="normal" in="SourceGraphic" in2="effect1_dropShadow_1_2" result="shape"/>
</filter>
</defs>
</svg>
